<svg width="70" height="70" viewBox="0 0 70 70" fill="none" xmlns="http://www.w3.org/2000/svg">
<mask id="mask0" mask-type="alpha" maskUnits="userSpaceOnUse" x="0" y="0" width="70" height="70">
<circle cx="35" cy="35" r="35" fill="#C4C4C4"/>
</mask>
<g mask="url(#mask0)">
<circle cx="35" cy="35" r="35" fill="#F7F9FC"/>
<path d="M50.2381 41.0545C49.7256 34.3202 46.557 27.9974 42.3129 22.7501C39.9455 19.8197 36.2067 18.7153 32.2441 18.2606L36.4593 56.681H45.5754C49.0832 52.4297 50.6639 46.6122 50.2381 41.0545Z" fill="#262626"/>
<path d="M24.7589 22.4326C23.402 24.3814 22.045 26.3374 20.6881 28.2862C19.3889 30.1484 18.0897 32.0251 17.0936 34.0677C14.2931 39.8203 11.4854 47.8898 20.4066 55.8294H34.5246V21.7108L24.7589 22.4326Z" fill="#262626"/>
<path d="M34.7988 50.7117H35.0587H35.3185C37.1446 50.7117 38.9057 49.6868 40.2555 47.8318L40.6164 47.341V40.8594H35.0659H29.5154V47.341L29.8763 47.8318C31.2116 49.6868 32.9727 50.7117 34.7988 50.7117Z" fill="#EEBE7E"/>
<path d="M40.2486 47.8318C38.8988 49.6867 37.1377 50.7117 35.3116 50.7117H35.0518H34.7919C32.9658 50.7117 31.2047 49.6867 29.8549 47.8318L29.494 47.3409V52.2274L28.1588 52.7615L28.7073 53.5483C30.1509 55.6198 32.5255 64.1666 35.0518 64.1666C37.578 64.1666 39.9382 55.6198 41.3818 53.5483L41.9303 52.7615L40.595 52.2274V47.3409L40.2486 47.8318Z" fill="#FCD79E"/>
<path d="M24.4652 37.9824C26.5405 37.1283 27.5304 34.7535 26.6762 32.6782C25.822 30.6029 23.4472 29.613 21.372 30.4672C19.2967 31.3214 18.3068 33.6961 19.1609 35.7714C20.0151 37.8467 22.3899 38.8366 24.4652 37.9824Z" fill="#FCD79E"/>
<path d="M49.8142 37.1008C51.4011 35.5139 51.4011 32.941 49.8142 31.354C48.2273 29.7671 45.6544 29.7671 44.0674 31.354C42.4805 32.941 42.4805 35.5139 44.0674 37.1008C45.6544 38.6877 48.2273 38.6877 49.8142 37.1008Z" fill="#FCD79E"/>
<path d="M35.0592 18.7299C28.2167 18.7299 22.6735 19.0041 22.6735 25.8466V33.0861C22.6735 37.6838 24.6006 42.065 27.993 45.1687L28.5054 45.6451C30.2089 47.2041 32.4247 48.0702 34.7344 48.0702H35.0592H35.384C37.6937 48.0702 39.9096 47.2041 41.613 45.6451L42.1255 45.1687C45.5106 42.065 47.445 37.6766 47.445 33.0861V25.8466C47.445 19.0041 41.9017 18.7299 35.0592 18.7299Z" fill="#FCD79E"/>
<path d="M49.7324 25.8826C49.7685 25.1103 49.7252 24.2153 49.5159 23.2698C49.3066 22.3315 48.9312 21.3426 48.3394 20.4765C47.7475 19.6104 46.9319 18.8886 46.0513 18.4483C45.1707 18.0008 44.2324 17.8492 43.4673 17.9503C44.2252 18.0946 45.0336 18.4122 45.777 18.9247C46.5205 19.4299 47.199 20.1084 47.7403 20.8879C48.8157 22.4686 49.3282 24.3958 49.7324 25.8826Z" fill="#262626"/>
<path d="M49.0974 54.8043C50.5265 53.1442 51.8763 50.4953 52.4537 47.6442C53.0528 44.8004 52.8651 41.8339 52.2083 39.7407C52.1722 41.9349 51.999 44.7138 51.4288 47.4349C50.873 50.156 49.9275 52.7761 49.0974 54.8043Z" fill="#262626"/>
<path d="M52.4973 51.5346C52.4468 51.5923 52.4035 51.6573 52.3457 51.7295L52.4107 51.7656C53.1974 50.6396 53.8903 48.9578 54.1357 47.2039C54.3956 45.45 54.2079 43.6672 53.7821 42.4041C53.7893 43.7393 53.746 45.4355 53.4861 47.1101C53.2407 48.7846 52.7716 50.4303 52.3385 51.7367L52.4035 51.7728C52.4396 51.6789 52.4684 51.6068 52.4973 51.5346Z" fill="#262626"/>
<path d="M54.8331 38.7399C53.9742 36.2209 53.0411 33.1788 52.4998 30.5732C52.0451 28.3717 51.4775 25.8107 51.3331 23.5732C51.1888 21.3285 50.1665 18.9065 48.9998 17.1566C47.8331 15.4067 44.9165 11.9066 39.6665 12.4898L31.955 15.756L32.2292 18.275C36.199 18.7297 41.9998 28.2398 47.8331 30.5732C51.9165 31.1565 51.3331 36.9898 48.4165 38.1565C48.8423 43.707 49.0684 52.4441 45.5605 56.6954H50.2737C55.4417 51.5635 57.1789 45.6185 54.8331 38.7399Z" fill="#262626"/>
<path d="M65.6334 69.6225C64.3703 64.4401 60.6676 60.1888 55.7017 58.2184L41.9446 52.7617L41.396 53.5485C39.9525 55.62 35.0588 62.6876 35.0588 62.6876C35.0588 62.6876 30.1651 55.62 28.7216 53.5485L28.173 52.7617L14.4159 58.2184C9.45723 60.1888 5.75449 64.4329 4.48416 69.6225L2.33325 78.4066H35.0588H67.7843L65.6334 69.6225Z" fill="#FC5D9A"/>
<path d="M42.8756 15.0703C42.5075 12.6018 40.977 11.421 38.7467 10.3383C36.5237 9.26284 33.9325 9.1257 31.5001 9.5732C25.2422 10.7136 19.5847 16.1559 18.0834 22.4065C17.1018 26.4846 17.0074 28.1726 15.7501 32.9066C14.7628 36.6239 13.3006 39.436 12.833 42.8232C12.3306 46.462 12.3684 48.4131 13.9997 50.9899C15.6309 53.5667 17.3968 55.5189 20.4066 55.8365C16.9781 52.3864 15.9171 46.9441 16.7688 42.1226C17.6205 37.3012 17.0506 31.7294 21.5834 29.9899C24.5001 31.7399 32.6628 20.9459 34.4167 17.1566L42.8756 15.0703Z" fill="#262626"/>
<path d="M30.8073 27.3911C30.9806 27.5138 31.4136 27.9758 30.8434 27.983C30.2732 27.9902 29.7174 27.3334 28.8874 27.7737C28.0862 28.1779 28.7214 27.1385 29.371 27.088C30.0278 27.0447 30.6052 27.2468 30.8073 27.3911Z" fill="#262626"/>
<path d="M38.4876 27.3911C38.3144 27.5138 37.8813 27.9758 38.4516 27.983C39.0218 27.9902 39.5775 27.3334 40.4076 27.7737C41.2088 28.1779 40.5736 27.1385 39.924 27.088C39.2672 27.0447 38.697 27.2468 38.4876 27.3911Z" fill="#262626"/>
<path d="M39.4764 31.3176C39.1227 31.3176 38.8412 30.7185 38.8412 29.9823C38.8412 29.246 39.1227 28.647 39.4764 28.647C39.83 28.647 40.1115 29.246 40.1115 29.9823C40.1115 30.7185 39.83 31.3176 39.4764 31.3176Z" fill="#262626"/>
<path d="M29.696 31.3176C29.3423 31.3176 29.0608 30.7185 29.0608 29.9823C29.0608 29.246 29.3423 28.647 29.696 28.647C30.0496 28.647 30.3311 29.246 30.3311 29.9823C30.3311 30.7185 30.0496 31.3176 29.696 31.3176Z" fill="#262626"/>
<path d="M35.2826 30.5886C35.2826 30.5886 33.1461 34.71 31.32 35.0637C29.4939 35.4173 32.1861 37.3012 33.7596 36.897C33.7596 36.897 32.0851 36.1824 32.4387 35.4751C32.7996 34.71 36.3003 31.7074 35.2826 30.5886Z" fill="#262626"/>
<path d="M32.5612 40.0655C32.5612 40.0655 34.1924 41.5957 37.1229 39.849C40.0533 38.095 34.1347 47.3988 32.5612 40.0655Z" fill="#262626"/>
<path d="M35.0338 12.8334C33.8675 12.835 19.8676 12.8334 21.0736 29.1633C21.0736 29.1633 23.3859 16.3301 35.0338 16.3301C46.6818 16.3301 48.9941 29.1633 48.9941 29.1633C50.7843 12.8335 36.2008 12.8452 35.0338 12.8334Z" fill="#2D87F3"/>
</g>
</svg>
