<svg width="70" height="70" viewBox="0 0 70 70" fill="none" xmlns="http://www.w3.org/2000/svg">
<mask id="mask0" mask-type="alpha" maskUnits="userSpaceOnUse" x="0" y="0" width="70" height="70">
<circle cx="35" cy="35" r="35" fill="#C4C4C4"/>
</mask>
<g mask="url(#mask0)">
<circle cx="35" cy="35" r="35" fill="#F7F9FC"/>
<path d="M68.519 67.0924C67.9324 65.188 66.904 63.4969 65.5634 62.1258C63.857 60.389 61.6479 59.1702 59.1722 58.6826C59.1722 58.6826 54.6931 57.8599 50.5186 56.5649C48.698 58.4693 43.7619 62.5143 34.8188 62.2934C26.3405 62.0877 22.5164 58.6522 21.0539 56.7859C17.5803 57.9513 14.0838 58.6826 14.0838 58.6826C9.65797 59.551 4.02858 62.7809 2.71074 67.0924C1.14914 72.1962 -0.458165 81.3754 0.120771 87.4999H71.1089C71.6879 81.3754 70.0882 72.1962 68.519 67.0924Z" fill="#2D87F3"/>
<path d="M34.8186 62.2858C43.7616 62.5067 48.6978 58.4618 50.5184 56.5574C46.8925 55.4376 43.4874 53.9598 43.4341 52.3601L42.8856 36.965H28.4808L27.9323 52.3601C27.8714 54.0664 24.4663 55.6356 21.046 56.7783C22.5162 58.6522 26.3402 62.0801 34.8186 62.2858Z" fill="#FCD79E"/>
<path d="M28.0698 45.3368L28.085 48.2619C28.085 48.2619 37.706 54.9654 43.3125 48.978L43.1678 44.8645L28.0698 45.3368Z" fill="#EEBE7E"/>
<path d="M23.2323 22.9791C23.2323 22.9791 24.0474 34.0246 25.8299 42.0155C26.8202 46.4489 30.728 49.6407 35.2681 49.6711C35.3366 49.6711 35.4052 49.6711 35.4738 49.6711C40.2957 49.6787 44.3939 46.1442 45.1252 41.3756C45.8565 36.6146 46.6335 30.0711 46.6487 23.8704C46.6487 23.8704 47.54 13.3124 35.8927 12.0784C22.242 10.6387 23.2323 22.9791 23.2323 22.9791Z" fill="#FCD79E"/>
<path d="M45.2773 29.1419C45.2773 29.1419 46.3971 26.0948 48.1034 26.1482C49.8097 26.2015 47.5092 34.337 45.1173 34.2685L45.2773 29.1419Z" fill="#FCD79E"/>
<path d="M24.5884 29.3094C24.5884 29.3094 23.2477 26.3538 21.549 26.5366C19.8503 26.7118 22.745 34.6645 25.1217 34.4132L24.5884 29.3094Z" fill="#FCD79E"/>
<path d="M24.6115 28.3952C23.9488 28.6694 23.187 28.319 22.9661 27.6334C22.57 26.4299 21.9682 24.6093 21.473 23.2152C20.6656 20.9452 16.1408 17.9286 21.1836 12.4668C26.2264 7.00505 28.7935 13.1829 32.0767 11.667C35.3675 10.1587 39.3515 6.53276 42.6423 9.00847C45.9331 11.4842 43.625 13.6628 44.7219 14.3179C45.8264 14.973 47.6699 11.7889 48.7821 16.1918C49.6428 19.5969 47.8756 25.7747 47.0376 28.3876C46.832 29.0198 46.0931 29.3093 45.5141 28.9741C45.2094 28.7989 45.0114 28.479 44.9961 28.1286C44.9428 27.1307 44.8133 24.9216 44.5924 22.4306C44.2953 19.0484 41.0731 23.619 35.0552 24.0989C29.0373 24.5788 29.6391 21.3489 26.7673 21.2575C25.5561 21.2194 25.3885 25.4396 25.3733 27.2602C25.3809 27.7553 25.0762 28.2048 24.6115 28.3952Z" fill="#1B3250"/>
<path d="M26.3628 54.3939C26.3628 54.3939 36.3876 58.3398 45.2773 54.3939C45.2773 54.3939 49.0251 56.3288 53.1462 57.3115C57.2673 58.2941 45.2773 63.5807 45.2773 63.5807L32.4721 67.2295L19.1033 65.3785L16.0029 58.2332C16.0029 58.2332 21.0001 57.0144 26.3628 54.3939Z" fill="#2D87F3"/>
<path d="M30.881 28.4714C31.0638 28.6009 31.5209 29.0884 30.9191 29.096C30.3173 29.1036 29.7307 28.4104 28.8547 28.8751C28.0091 29.3017 28.6795 28.2048 29.3651 28.1514C30.0583 28.1057 30.6601 28.319 30.881 28.4714Z" fill="#284A75"/>
<path d="M38.9857 28.4714C38.8029 28.6009 38.3458 29.0884 38.9476 29.096C39.5494 29.1036 40.136 28.4104 41.012 28.8751C41.8575 29.3017 41.1872 28.2048 40.5016 28.1514C39.8084 28.1057 39.199 28.319 38.9857 28.4714Z" fill="#284A75"/>
<path d="M40.029 32.6153C39.6557 32.6153 39.3586 31.983 39.3586 31.206C39.3586 30.429 39.6557 29.7968 40.029 29.7968C40.4022 29.7968 40.6993 30.429 40.6993 31.206C40.6993 31.983 40.3946 32.6153 40.029 32.6153Z" fill="#284A75"/>
<path d="M29.7073 32.6153C29.334 32.6153 29.0369 31.983 29.0369 31.206C29.0369 30.429 29.334 29.7968 29.7073 29.7968C30.0805 29.7968 30.3776 30.429 30.3776 31.206C30.3776 31.983 30.0729 32.6153 29.7073 32.6153Z" fill="#284A75"/>
<path d="M35.6026 31.8461C35.6026 31.8461 33.3478 36.1957 31.4206 36.569C29.4933 36.9422 32.3347 38.9304 33.9953 38.5038C33.9953 38.5038 32.228 37.7497 32.6013 37.0032C32.9746 36.1957 36.6767 33.0268 35.6026 31.8461Z" fill="#284A75"/>
<path d="M32.7319 41.8477C32.7319 41.8477 34.4534 43.4626 37.5462 41.6192C40.6313 39.7681 34.3925 49.5795 32.7319 41.8477Z" fill="#284A75"/>
</g>
</svg>
